<svg width="100" height="100" viewBox="0 0 100 100" fill="none" xmlns="http://www.w3.org/2000/svg">
<rect width="100" height="100" rx="8" fill="#699576"/>
<path d="M11.072 56V51.792H10V51.04H11.072V46.992H13.456C14.544 46.992 15.4933 47.1627 16.304 47.504C17.1147 47.8347 17.744 48.3307 18.192 48.992C18.64 49.6533 18.864 50.4853 18.864 51.488C18.864 52.672 18.64 53.5947 18.192 54.256C17.744 54.9067 17.1147 55.36 16.304 55.616C15.4933 55.872 14.544 56 13.456 56H11.072ZM12.096 55.12H13.68C14.512 55.12 15.232 55.0293 15.84 54.848C16.4587 54.656 16.9333 54.2987 17.264 53.776C17.6053 53.2533 17.776 52.4907 17.776 51.488C17.776 50.2613 17.4027 49.36 16.656 48.784C15.9093 48.1973 14.9173 47.904 13.68 47.904H12.096V51.04H14.8V51.792H12.096V55.12ZM22.4898 56.144C21.8924 56.144 21.4018 56 21.0178 55.712C20.6338 55.4133 20.3458 55.0133 20.1538 54.512C19.9724 54.0107 19.8818 53.44 19.8818 52.8C19.8818 51.8187 20.0951 51.0133 20.5218 50.384C20.9591 49.744 21.6151 49.424 22.4898 49.424C22.9378 49.424 23.3111 49.504 23.6098 49.664C23.9191 49.8133 24.1644 50 24.3458 50.224C24.5378 50.448 24.6764 50.6613 24.7618 50.864H24.7778V49.488H25.8338V56H24.9538L24.7938 54.736H24.7618C24.6658 54.9493 24.5271 55.168 24.3458 55.392C24.1644 55.6053 23.9191 55.7867 23.6098 55.936C23.3111 56.0747 22.9378 56.144 22.4898 56.144ZM22.8898 55.232C23.5511 55.232 24.0258 55.0133 24.3138 54.576C24.6124 54.1387 24.7618 53.552 24.7618 52.816C24.7618 52.0267 24.6071 51.424 24.2977 51.008C23.9991 50.592 23.5298 50.384 22.8898 50.384C22.1858 50.384 21.6791 50.6187 21.3698 51.088C21.0711 51.5467 20.9218 52.1173 20.9218 52.8C20.9218 53.5147 21.0764 54.1013 21.3858 54.56C21.6951 55.008 22.1964 55.232 22.8898 55.232ZM20.9378 48.608V48.48L22.6818 46.832H23.1458L24.8898 48.48V48.608H23.9298L22.9378 47.536H22.8898L21.9298 48.608H20.9378ZM26.3739 58.912V58.08H27.2699C27.4832 58.08 27.6592 58.0213 27.7979 57.904C27.9365 57.7973 28.1072 57.5307 28.3099 57.104L28.9979 55.616L26.4379 49.488H27.5099L29.5099 54.528L31.6379 49.488H32.7259L29.2379 57.248C29.0245 57.728 28.8325 58.0853 28.6619 58.32C28.5019 58.5653 28.3205 58.7253 28.1179 58.8C27.9152 58.8747 27.6592 58.912 27.3499 58.912H26.3739ZM37.5664 56V46.992H38.5744V56H37.5664ZM42.3023 56.144C41.7049 56.144 41.2143 56 40.8303 55.712C40.4463 55.4133 40.1583 55.0133 39.9663 54.512C39.7849 54.0107 39.6943 53.44 39.6943 52.8C39.6943 51.8187 39.9076 51.0133 40.3343 50.384C40.7716 49.744 41.4276 49.424 42.3023 49.424C42.7503 49.424 43.1236 49.504 43.4223 49.664C43.7316 49.8133 43.9769 50 44.1583 50.224C44.3503 50.448 44.4889 50.6613 44.5743 50.864H44.5903V49.488H45.6463V56H44.7663L44.6063 54.736H44.5743C44.4783 54.9493 44.3396 55.168 44.1583 55.392C43.9769 55.6053 43.7316 55.7867 43.4223 55.936C43.1236 56.0747 42.7503 56.144 42.3023 56.144ZM42.7023 55.232C43.3636 55.232 43.8383 55.0133 44.1263 54.576C44.4249 54.1387 44.5743 53.552 44.5743 52.816C44.5743 52.0267 44.4196 51.424 44.1102 51.008C43.8116 50.592 43.3423 50.384 42.7023 50.384C41.9983 50.384 41.4916 50.6187 41.1823 51.088C40.8836 51.5467 40.7343 52.1173 40.7343 52.8C40.7343 53.5147 40.8889 54.1013 41.1983 54.56C41.5076 55.008 42.0089 55.232 42.7023 55.232ZM42.6703 48.8L41.4223 47.232V46.992H42.3663L43.1823 48.64V48.8H42.6703ZM50.3353 56L53.5033 46.992H55.1993L58.4153 56H57.3273L56.3513 53.184H52.3993L51.4233 56H50.3353ZM54.3833 47.44L52.6873 52.32H56.0633L54.3833 47.44ZM63.5921 49.488H64.6161V49.712L62.1521 56H60.6961L58.2161 49.712V49.488H59.2401L61.4161 55.152H61.4481L63.5921 49.488ZM67.8335 56.144C67.2362 56.144 66.7455 56 66.3615 55.712C65.9775 55.4133 65.6895 55.0133 65.4975 54.512C65.3162 54.0107 65.2255 53.44 65.2255 52.8C65.2255 51.8187 65.4388 51.0133 65.8655 50.384C66.3028 49.744 66.9588 49.424 67.8335 49.424C68.2815 49.424 68.6548 49.504 68.9535 49.664C69.2628 49.8133 69.5082 50 69.6895 50.224C69.8815 50.448 70.0202 50.6613 70.1055 50.864H70.1215V49.488H71.1775V56H70.2975L70.1375 54.736H70.1055C70.0095 54.9493 69.8708 55.168 69.6895 55.392C69.5082 55.6053 69.2628 55.7867 68.9535 55.936C68.6548 56.0747 68.2815 56.144 67.8335 56.144ZM68.2335 55.232C68.8948 55.232 69.3695 55.0133 69.6575 54.576C69.9562 54.1387 70.1055 53.552 70.1055 52.816C70.1055 52.0267 69.9508 51.424 69.6415 51.008C69.3428 50.592 68.8735 50.384 68.2335 50.384C67.5295 50.384 67.0228 50.6187 66.7135 51.088C66.4148 51.5467 66.2655 52.1173 66.2655 52.8C66.2655 53.5147 66.4202 54.1013 66.7295 54.56C67.0388 55.008 67.5402 55.232 68.2335 55.232ZM74.0056 56C73.611 56 73.3336 55.8933 73.1736 55.68C73.0243 55.4667 72.9496 55.1733 72.9496 54.8V50.256H71.9256V49.488C72.267 49.488 72.5176 49.4613 72.6776 49.408C72.8483 49.344 72.955 49.1947 72.9976 48.96C73.0403 48.7253 73.0616 48.3413 73.0616 47.808H73.9416V49.488H75.4456V50.256H73.9416V55.168H75.4616V56H74.0056ZM79.0835 56.144C78.4862 56.144 77.9955 56 77.6115 55.712C77.2275 55.4133 76.9395 55.0133 76.7475 54.512C76.5662 54.0107 76.4755 53.44 76.4755 52.8C76.4755 51.8187 76.6888 51.0133 77.1155 50.384C77.5528 49.744 78.2088 49.424 79.0835 49.424C79.5315 49.424 79.9048 49.504 80.2035 49.664C80.5128 49.8133 80.7582 50 80.9395 50.224C81.1315 50.448 81.2702 50.6613 81.3555 50.864H81.3715V49.488H82.4275V56H81.5475L81.3875 54.736H81.3555C81.2595 54.9493 81.1208 55.168 80.9395 55.392C80.7582 55.6053 80.5128 55.7867 80.2035 55.936C79.9048 56.0747 79.5315 56.144 79.0835 56.144ZM79.4835 55.232C80.1448 55.232 80.6195 55.0133 80.9075 54.576C81.2062 54.1387 81.3555 53.552 81.3555 52.816C81.3555 52.0267 81.2008 51.424 80.8915 51.008C80.5928 50.592 80.1235 50.384 79.4835 50.384C78.7795 50.384 78.2728 50.6187 77.9635 51.088C77.6648 51.5467 77.5155 52.1173 77.5155 52.8C77.5155 53.5147 77.6702 54.1013 77.9795 54.56C78.2888 55.008 78.7902 55.232 79.4835 55.232ZM83.7836 56V49.488H84.7116L84.8236 51.2C84.8876 50.912 85.0156 50.6347 85.2076 50.368C85.3996 50.1013 85.661 49.888 85.9916 49.728C86.333 49.5573 86.7543 49.4773 87.2556 49.488H87.5596V50.624H87.2396C86.557 50.624 86.0396 50.7253 85.6876 50.928C85.3463 51.12 85.1116 51.392 84.9836 51.744C84.8663 52.096 84.8076 52.5013 84.8076 52.96V56H83.7836Z" fill="white"/>
</svg>
