<svg width="151" height="32" viewBox="0 0 151 32" fill="none" xmlns="http://www.w3.org/2000/svg">
<g clip-path="url(#clip0)">
<path d="M150.877 0V11.4555C150.743 8.77628 149.717 6.21897 147.96 4.19104L141.937 9.61704L137.43 13.6628L131.283 19.2006C130.85 19.561 130.42 19.9298 129.995 20.2986C128.846 21.2952 127.728 22.3196 126.642 23.372C123.995 25.9417 121.522 28.684 119.238 31.5809C119.065 31.2251 118.878 30.8815 118.679 30.5499C118.312 29.9483 117.893 29.3799 117.427 28.8511C116.921 28.2721 116.359 27.7435 115.751 27.2725C114.728 26.4846 112.714 25.6631 110.593 25.0373C108.473 24.4114 106.207 23.9672 104.807 23.9672C106.405 23.7045 108.5 23.6403 110.593 23.5229C112.881 23.3944 115.161 23.196 116.774 22.5841C117.181 22.4277 118.833 21.8214 119.238 21.6593C122.252 20.4252 125.142 18.9077 127.869 17.1274C129.087 16.332 130.267 15.4873 131.409 14.5932L131.49 14.5262L132.694 13.5482L135.575 11.2152L139.919 7.70034L146.262 2.56492C145.433 1.91601 144.522 1.37782 143.554 0.96394C142.153 0.363338 140.65 0.0361522 139.126 0L150.877 0Z" fill="white"/>
<path d="M139.911 7.71152L135.569 11.2264C135.53 11.1761 135.485 11.1286 135.443 11.0783C131.349 6.28502 125.916 2.82345 119.842 1.13717L119.23 8.16415V0C119.467 0 119.705 0 119.945 0.0139701C123.916 0.0932574 127.836 0.926702 131.495 2.46992C134.256 3.63803 136.838 5.1921 139.162 7.08566C139.422 7.28962 139.665 7.49638 139.911 7.71152Z" fill="#FF4D3E"/>
<path d="M150.83 31.6006H127.042L142.982 30.2036C142.743 24.5171 140.963 19.0025 137.832 14.2497C137.701 14.0457 137.567 13.8473 137.43 13.6518L141.937 9.61719C142.356 10.0475 142.761 10.4889 143.152 10.9416C145.339 13.4702 147.112 16.3295 148.405 19.413C149.751 22.6292 150.551 26.0477 150.771 29.5274C150.81 30.2148 150.83 30.9058 150.83 31.6006Z" fill="#FF4D3E"/>
<path d="M119.23 17.4322C120.804 17.4322 122.079 16.1563 122.079 14.5823C122.079 13.0084 120.804 11.7324 119.23 11.7324C117.656 11.7324 116.38 13.0084 116.38 14.5823C116.38 16.1563 117.656 17.4322 119.23 17.4322Z" fill="white"/>
<path d="M11.6092 30.4743C9.916 31.3125 8.02165 31.631 4.85881 31.631H0V10.7568H4.77499C8.04959 10.7568 10.5363 11.2653 12.1764 12.2516C15.0877 14.0035 16.7223 17.2809 16.7223 21.2344C16.7223 25.445 14.8307 28.8901 11.6092 30.4743ZM9.63381 15.3027C8.41841 14.6824 7.09124 14.4645 4.6325 14.4645H3.86973V27.9401H4.70794C7.02419 27.9401 8.63634 27.6607 9.79307 27.0069C11.6679 25.9843 12.8246 23.7491 12.8246 21.2344C12.8246 18.5522 11.6092 16.3197 9.63381 15.3027Z" fill="white"/>
<path d="M31.7792 31.6314V29.5974C30.2816 31.2934 28.7868 32.0003 26.5823 32.0003C22.0057 32.0003 18.7003 28.5804 18.7003 23.864C18.7003 19.0891 22.0336 15.6133 26.6661 15.6133C28.9265 15.6133 30.4799 16.3481 31.7792 18.072V15.9821H35.227V31.6287L31.7792 31.6314ZM27.0628 19.0583C24.3778 19.0583 22.4862 21.0924 22.4862 23.9451C22.4862 26.686 24.3778 28.5496 27.1187 28.5496C29.9714 28.5496 31.6674 26.5156 31.6674 23.9171C31.6674 21.0672 29.7451 19.0611 27.0628 19.0611V19.0583Z" fill="white"/>
<path d="M57.7414 31.6316V23.0455C57.7414 19.9078 56.5539 19.0612 54.8021 19.0612C52.7121 19.0612 51.6392 20.1789 51.6392 23.9201V31.6316H47.8813V23.0455C47.8813 19.9721 46.8083 19.0612 44.8302 19.0612C42.6564 19.0612 41.7791 20.218 41.7791 23.9201V31.6316H38.0239V15.985H41.469V17.4547C42.5698 16.1247 43.7042 15.6162 45.5371 15.6162C47.6829 15.6162 49.0687 16.351 50.1416 18.047C51.4129 16.351 52.9664 15.6162 55.1709 15.6162C59.2977 15.6162 61.4993 17.9045 61.4993 22.6013V31.64L57.7414 31.6316Z" fill="white"/>
<path d="M70.3117 32.0003C66.6375 32.0003 63.7849 29.6253 63.4468 25.6718H67.4869C67.6546 27.4236 68.5878 28.2702 70.3117 28.2702C71.9881 28.2702 73.1365 27.2253 73.1365 25.7277C73.1477 25.3248 73.067 24.9247 72.9005 24.5577C72.7339 24.1907 72.4859 23.8666 72.1753 23.6098C71.5522 23.1292 71.3371 23.051 68.5598 21.9976C65.7826 20.9443 64.2095 18.9466 64.2095 16.3202C64.2157 15.5309 64.3781 14.7507 64.6873 14.0245C64.9965 13.2983 65.4464 12.6405 66.0111 12.0891C66.5758 11.5376 67.2441 11.1035 67.9774 10.8116C68.7107 10.5197 69.4946 10.3759 70.2838 10.3885C73.6366 10.3885 76.2713 12.6488 76.4697 16.3202H72.4575C72.3457 14.9232 71.5522 14.1185 70.253 14.1185C69.9696 14.1031 69.686 14.147 69.4205 14.2476C69.1551 14.3482 68.9136 14.5032 68.7115 14.7026C68.5095 14.9021 68.3513 15.1415 68.2473 15.4056C68.1432 15.6698 68.0955 15.9527 68.1072 16.2364C68.1072 16.9991 68.504 17.6334 69.2667 18.1279C69.5461 18.2983 69.6048 18.3263 71.583 19.0611C75.8187 20.6425 76.9782 22.4782 76.9782 25.303C76.9936 26.1841 76.832 27.0594 76.5028 27.8769C76.1736 28.6944 75.6836 29.4375 75.0619 30.062C74.4402 30.6866 73.6994 31.18 72.8834 31.513C72.0674 31.8459 71.1929 32.0116 70.3117 32.0003Z" fill="white"/>
<path d="M91.6664 31.6314V29.5974C90.1688 31.2934 88.6712 32.0003 86.4695 32.0003C81.8929 32.0003 78.5875 28.5804 78.5875 23.864C78.5875 19.0891 81.9208 15.6133 86.5533 15.6133C88.8137 15.6133 90.3671 16.3481 91.6664 18.072V15.9821H95.1114V31.6287L91.6664 31.6314ZM86.9501 19.0583C84.265 19.0583 82.3734 21.0924 82.3734 23.9451C82.3734 26.686 84.265 28.5496 87.0059 28.5496C89.8586 28.5496 91.5546 26.5156 91.5546 23.9171C91.5546 21.0672 89.6323 19.0611 86.9501 19.0611V19.0583Z" fill="white"/>
<path d="M108.051 31.6316V23.9759C108.051 19.7849 106.933 19.0612 105.055 19.0612C104.509 19.041 103.966 19.1632 103.48 19.416C102.995 19.6687 102.584 20.0433 102.287 20.503C101.809 21.2657 101.666 22.1794 101.666 24.2581V31.6316H97.9083V15.985H101.384V17.4826C102.767 16.1555 104.01 15.6162 105.79 15.6162C107.967 15.6162 109.66 16.4097 110.677 17.8766C111.515 19.092 111.809 20.4471 111.809 23.2439V31.626L108.051 31.6316Z" fill="white"/>
</g>
<defs>
<clipPath id="clip0">
<rect width="150.869" height="32" fill="white"/>
</clipPath>
</defs>
</svg>
